<?xml version="1.0" encoding="UTF-8"?>
<svg width="62px" height="53px" viewBox="0 0 62 53" version="1.1" xmlns="http://www.w3.org/2000/svg" xmlns:xlink="http://www.w3.org/1999/xlink">
    <!-- Generator: Sketch 39.1 (31720) - http://www.bohemiancoding.com/sketch -->
    <title>Group 6</title>
    <desc>Created with Sketch.</desc>
    <defs>
        <path d="M32.5,45 C48.5606061,45 59,27 59,27 C59,27 48.5606061,9 32.5,9 C16.4393939,9 6,27 6,27 C6,27 16.4393939,45 32.5,45 Z" id="path-1"></path>
        <mask id="mask-2" maskContentUnits="userSpaceOnUse" maskUnits="objectBoundingBox" x="0" y="0" width="53" height="36" fill="white">
            <use xlink:href="#path-1"></use>
        </mask>
        <ellipse id="path-3" cx="32.0454545" cy="26.7391304" rx="12.0454545" ry="11.7391304"></ellipse>
        <mask id="mask-4" maskContentUnits="userSpaceOnUse" maskUnits="objectBoundingBox" x="0" y="0" width="24.0909091" height="23.4782609" fill="white">
            <use xlink:href="#path-3"></use>
        </mask>
        <ellipse id="path-5" cx="31.8181818" cy="26.6956522" rx="4.81818182" ry="4.69565217"></ellipse>
        <mask id="mask-6" maskContentUnits="userSpaceOnUse" maskUnits="objectBoundingBox" x="0" y="0" width="9.63636364" height="9.39130435" fill="white">
            <use xlink:href="#path-5"></use>
        </mask>
    </defs>
    <g id="扶뒬못+G2" stroke="none" stroke-width="1" fill="none" fill-rule="evenodd">
        <g id="扶뒬못-copy-3" transform="translate(-199.000000, -789.000000)">
            <g id="Group-6" transform="translate(199.000000, 789.000000)">
                <g id="Group-15">
                    <rect id="Rectangle-11" fill="#7463FF" opacity="0.300839552" x="0" y="0" width="24" height="4" rx="2"></rect>
                    <rect id="Rectangle-11" fill="#7463FF" opacity="0.300839552" x="27" y="0" width="5" height="4" rx="2"></rect>
                    <rect id="Rectangle-11" fill="#7463FF" opacity="0.300839552" x="34" y="49" width="13" height="4" rx="2"></rect>
                    <rect id="Rectangle-11" fill="#7463FF" opacity="0.300839552" x="51" y="49" width="11" height="4" rx="2"></rect>
                    <use id="Oval-5" stroke="#404040" mask="url(#mask-2)" stroke-width="2" fill="#FFFFFF" xlink:href="#path-1"></use>
                    <use id="Oval-6" stroke="#6556E2" mask="url(#mask-4)" stroke-width="2" fill="#C8C4EC" xlink:href="#path-3"></use>
                    <use id="Oval-6" stroke="#6556E2" mask="url(#mask-6)" stroke-width="2" fill="#FFFFFF" xlink:href="#path-5"></use>
                    <path d="M36.5,22 C37.8807119,22 39,20.8807119 39,19.5 C39,18.1192881 37.8807119,17 36.5,17 C35.1192881,17 34,18.1192881 34,19.5 C34,20.8807119 35.1192881,22 36.5,22 Z" id="Oval" fill="#FFFFFF" opacity="0.470090951"></path>
                </g>
            </g>
        </g>
    </g>
</svg>