<?xml version="1.0" encoding="UTF-8"?>
<svg width="62px" height="61px" viewBox="0 0 62 61" version="1.1" xmlns="http://www.w3.org/2000/svg" xmlns:xlink="http://www.w3.org/1999/xlink">
    <!-- Generator: Sketch 39.1 (31720) - http://www.bohemiancoding.com/sketch -->
    <title>Group 16</title>
    <desc>Created with Sketch.</desc>
    <defs></defs>
    <g id="扶뒬못+G2" stroke="none" stroke-width="1" fill="none" fill-rule="evenodd">
        <g id="扶뒬못-copy-3" transform="translate(-1018.000000, -790.000000)">
            <g id="Group-16" transform="translate(1018.000000, 790.000000)">
                <rect id="Rectangle-13" fill="#DEDAFF" x="0" y="0" width="20" height="4" rx="2"></rect>
                <rect id="Rectangle-13" fill="#DEDAFF" x="7" y="6" width="25" height="4" rx="2"></rect>
                <circle id="Oval-7" fill="#DEDAFF" cx="25" cy="2" r="2"></circle>
                <rect id="Rectangle-13" fill="#DEDAFF" x="43" y="53" width="13" height="3" rx="1.5"></rect>
                <rect id="Rectangle-13" fill="#DEDAFF" x="50" y="58" width="9" height="3" rx="1.5"></rect>
                <circle id="Oval-7" fill="#DEDAFF" cx="60.5" cy="54.5" r="1.5"></circle>
                <polygon id="Path-9" fill="#DEDAFF" points="17 38 52 3 25 42 21 50"></polygon>
                <path d="M51.7941032,4.04150415 C52.0920387,2.97307837 51.5936994,2.62279359 50.6977234,3.24748321 L4,35.8059259 L16.5227868,38.5124059 L20.6970491,49.3383263 L24.8713113,42.5721261 L38.7855189,50.6915664 L51.7941032,4.04150415 Z" id="Path-8" stroke="#404040" fill="#FFFFFF"></path>
                <polygon id="Path-11" fill="#DEDAFF" points="49 7 17 38 21 48"></polygon>
                <polyline id="Path-10" stroke="#6556E2" stroke-linecap="round" stroke-linejoin="round" points="17 38 51 4 25 42"></polyline>
            </g>
        </g>
    </g>
</svg>